<svg width="368" height="298" viewBox="0 0 368 298" fill="none" xmlns="http://www.w3.org/2000/svg">
<path d="M113.389 179.17L36.8885 242.17C36.8885 242.17 14.8882 250.67 5.38855 239.67C-5.61178 229.67 5.38855 209.17 5.38855 209.17L145.389 101.67H73.8885C73.8885 101.67 54.6545 103.17 52.8885 86.6699C51.4436 73.1699 73.8885 64.6698 73.8885 64.6698H224.389L174.389 25.1698C174.389 25.1698 167.889 14.6699 176.889 5.66987C190.889 -3.83006 205.389 2.66981 205.389 2.66981C205.389 2.66981 309.388 80.6699 336.889 106.67C368.388 145.67 375.832 184.769 355.889 228.67C335.388 263.17 314.388 280.17 276.889 292.17C235.388 302.17 189.388 299.17 152.389 266.67C127.295 242.541 109.388 216.67 113.389 179.17Z" fill="#484848" stroke="#484848"/>
<ellipse cx="239.388" cy="172.17" rx="77" ry="70.5" fill="#D9D9D9"/>
<ellipse cx="239.388" cy="167.67" rx="51" ry="47" fill="#E1CAA8"/>
</svg>
