<svg width="168" height="50" viewBox="0 0 168 50" fill="none" xmlns="http://www.w3.org/2000/svg">
<path d="M29.1577 49.1986L9.99951 6.7998L167.195 9.98584L162.283 34.0036L29.1577 49.1986Z" fill="#E1CAA8"/>
<path d="M14.7308 13.4441L0 41.0655L167.195 43.9987L149.273 0L14.7308 13.4441Z" fill="#484848"/>
<path d="M63.2268 31.128C62.3735 31.128 61.5842 30.9893 60.8588 30.712C60.1442 30.424 59.5202 30.024 58.9868 29.512C58.4642 28.9893 58.0535 28.3813 57.7548 27.688C57.4562 26.9947 57.3068 26.232 57.3068 25.4C57.3068 24.568 57.4562 23.8053 57.7548 23.112C58.0535 22.4187 58.4695 21.816 59.0028 21.304C59.5362 20.7813 60.1602 20.3813 60.8748 20.104C61.6002 19.816 62.3895 19.672 63.2428 19.672C64.1068 19.672 64.9015 19.8213 65.6268 20.12C66.3628 20.408 66.9868 20.84 67.4988 21.416L66.4588 22.424C66.0322 21.976 65.5522 21.6453 65.0188 21.432C64.4855 21.208 63.9148 21.096 63.3068 21.096C62.6775 21.096 62.0908 21.2027 61.5468 21.416C61.0135 21.6293 60.5495 21.928 60.1548 22.312C59.7602 22.696 59.4508 23.1547 59.2268 23.688C59.0135 24.2107 58.9068 24.7813 58.9068 25.4C58.9068 26.0187 59.0135 26.5947 59.2268 27.128C59.4508 27.6507 59.7602 28.104 60.1548 28.488C60.5495 28.872 61.0135 29.1707 61.5468 29.384C62.0908 29.5973 62.6775 29.704 63.3068 29.704C63.9148 29.704 64.4855 29.5973 65.0188 29.384C65.5522 29.16 66.0322 28.8187 66.4588 28.36L67.4988 29.368C66.9868 29.944 66.3628 30.3813 65.6268 30.68C64.9015 30.9787 64.1015 31.128 63.2268 31.128ZM72.8299 31.096C71.9766 31.096 71.2193 30.9093 70.5579 30.536C69.8966 30.1627 69.3739 29.6507 68.9899 29C68.6059 28.3387 68.4139 27.592 68.4139 26.76C68.4139 25.9173 68.6059 25.1707 68.9899 24.52C69.3739 23.8693 69.8966 23.3627 70.5579 23C71.2193 22.6267 71.9766 22.44 72.8299 22.44C73.6726 22.44 74.4246 22.6267 75.0859 23C75.7579 23.3627 76.2806 23.8693 76.6539 24.52C77.0379 25.16 77.2299 25.9067 77.2299 26.76C77.2299 27.6027 77.0379 28.3493 76.6539 29C76.2806 29.6507 75.7579 30.1627 75.0859 30.536C74.4246 30.9093 73.6726 31.096 72.8299 31.096ZM72.8299 29.752C73.3739 29.752 73.8593 29.6293 74.2859 29.384C74.7233 29.1387 75.0646 28.792 75.3099 28.344C75.5553 27.8853 75.6779 27.3573 75.6779 26.76C75.6779 26.152 75.5553 25.6293 75.3099 25.192C75.0646 24.744 74.7233 24.3973 74.2859 24.152C73.8593 23.9067 73.3739 23.784 72.8299 23.784C72.2859 23.784 71.8006 23.9067 71.3739 24.152C70.9473 24.3973 70.6059 24.744 70.3499 25.192C70.0939 25.6293 69.9659 26.152 69.9659 26.76C69.9659 27.3573 70.0939 27.8853 70.3499 28.344C70.6059 28.792 70.9473 29.1387 71.3739 29.384C71.8006 29.6293 72.2859 29.752 72.8299 29.752ZM83.8822 22.44C84.5755 22.44 85.1835 22.5733 85.7062 22.84C86.2395 23.1067 86.6555 23.512 86.9542 24.056C87.2529 24.6 87.4022 25.288 87.4022 26.12V31H85.8662V26.296C85.8662 25.4747 85.6635 24.856 85.2582 24.44C84.8635 24.024 84.3035 23.816 83.5782 23.816C83.0342 23.816 82.5595 23.9227 82.1542 24.136C81.7489 24.3493 81.4342 24.664 81.2102 25.08C80.9969 25.496 80.8902 26.0133 80.8902 26.632V31H79.3542V22.52H80.8262V24.808L80.5862 24.2C80.8635 23.6453 81.2902 23.2133 81.8662 22.904C82.4422 22.5947 83.1142 22.44 83.8822 22.44ZM93.1568 31.096C92.3035 31.096 91.6422 30.8667 91.1728 30.408C90.7035 29.9493 90.4688 29.2933 90.4688 28.44V20.664H92.0048V28.376C92.0048 28.8347 92.1168 29.1867 92.3408 29.432C92.5755 29.6773 92.9062 29.8 93.3328 29.8C93.8128 29.8 94.2128 29.6667 94.5328 29.4L95.0128 30.504C94.7782 30.7067 94.4955 30.856 94.1648 30.952C93.8448 31.048 93.5088 31.096 93.1568 31.096ZM89.0288 23.784V22.52H94.4368V23.784H89.0288ZM102.134 31V29.208L102.054 28.872V25.816C102.054 25.1653 101.862 24.664 101.478 24.312C101.104 23.9493 100.539 23.768 99.7818 23.768C99.2805 23.768 98.7898 23.8533 98.3098 24.024C97.8298 24.184 97.4245 24.4027 97.0938 24.68L96.4538 23.528C96.8912 23.176 97.4138 22.9093 98.0218 22.728C98.6405 22.536 99.2858 22.44 99.9578 22.44C101.12 22.44 102.016 22.7227 102.646 23.288C103.275 23.8533 103.59 24.7173 103.59 25.88V31H102.134ZM99.3498 31.096C98.7205 31.096 98.1658 30.9893 97.6858 30.776C97.2165 30.5627 96.8538 30.2693 96.5978 29.896C96.3418 29.512 96.2138 29.08 96.2138 28.6C96.2138 28.1413 96.3205 27.7253 96.5338 27.352C96.7578 26.9787 97.1152 26.68 97.6058 26.456C98.1072 26.232 98.7792 26.12 99.6218 26.12H102.31V27.224H99.6858C98.9178 27.224 98.4005 27.352 98.1338 27.608C97.8672 27.864 97.7338 28.1733 97.7338 28.536C97.7338 28.952 97.8992 29.288 98.2298 29.544C98.5605 29.7893 99.0192 29.912 99.6058 29.912C100.182 29.912 100.683 29.784 101.11 29.528C101.547 29.272 101.862 28.8987 102.054 28.408L102.358 29.464C102.155 29.9653 101.798 30.3653 101.286 30.664C100.774 30.952 100.128 31.096 99.3498 31.096ZM110.128 31.096C109.264 31.096 108.491 30.9093 107.808 30.536C107.136 30.1627 106.608 29.6507 106.224 29C105.84 28.3493 105.648 27.6027 105.648 26.76C105.648 25.9173 105.84 25.1707 106.224 24.52C106.608 23.8693 107.136 23.3627 107.808 23C108.491 22.6267 109.264 22.44 110.128 22.44C110.896 22.44 111.579 22.5947 112.176 22.904C112.784 23.2027 113.254 23.6507 113.584 24.248L112.416 25C112.139 24.584 111.798 24.28 111.392 24.088C110.998 23.8853 110.571 23.784 110.112 23.784C109.558 23.784 109.062 23.9067 108.624 24.152C108.187 24.3973 107.84 24.744 107.584 25.192C107.328 25.6293 107.2 26.152 107.2 26.76C107.2 27.368 107.328 27.896 107.584 28.344C107.84 28.792 108.187 29.1387 108.624 29.384C109.062 29.6293 109.558 29.752 110.112 29.752C110.571 29.752 110.998 29.656 111.392 29.464C111.798 29.2613 112.139 28.952 112.416 28.536L113.584 29.272C113.254 29.8587 112.784 30.312 112.176 30.632C111.579 30.9413 110.896 31.096 110.128 31.096ZM118.594 31.096C117.741 31.096 117.08 30.8667 116.61 30.408C116.141 29.9493 115.906 29.2933 115.906 28.44V20.664H117.442V28.376C117.442 28.8347 117.554 29.1867 117.778 29.432C118.013 29.6773 118.344 29.8 118.77 29.8C119.25 29.8 119.65 29.6667 119.97 29.4L120.45 30.504C120.216 30.7067 119.933 30.856 119.602 30.952C119.282 31.048 118.946 31.096 118.594 31.096ZM114.466 23.784V22.52H119.874V23.784H114.466Z" fill="#E1CAA8"/>
</svg>
