<svg width="168" height="50" viewBox="0 0 168 50" fill="none" xmlns="http://www.w3.org/2000/svg">
<path d="M29.1579 49.1986L9.99976 6.7998L167.195 9.98584L162.283 34.0036L29.1579 49.1986Z" fill="#E1CAA8"/>
<path d="M14.7308 13.4441L0 41.0655L167.195 43.9987L149.273 0L14.7308 13.4441Z" fill="#484848"/>
<path d="M58.9872 31L64.0592 19.8H65.6432L70.7312 31H69.0512L64.5232 20.696H65.1632L60.6352 31H58.9872ZM61.1472 28.2L61.5792 26.92H67.8832L68.3472 28.2H61.1472ZM75.7958 31.096C74.9318 31.096 74.1585 30.9093 73.4758 30.536C72.8038 30.1627 72.2758 29.6507 71.8918 29C71.5078 28.3493 71.3158 27.6027 71.3158 26.76C71.3158 25.9173 71.5078 25.1707 71.8918 24.52C72.2758 23.8693 72.8038 23.3627 73.4758 23C74.1585 22.6267 74.9318 22.44 75.7958 22.44C76.5638 22.44 77.2465 22.5947 77.8438 22.904C78.4518 23.2027 78.9211 23.6507 79.2518 24.248L78.0838 25C77.8065 24.584 77.4651 24.28 77.0598 24.088C76.6651 23.8853 76.2385 23.784 75.7798 23.784C75.2251 23.784 74.7291 23.9067 74.2918 24.152C73.8545 24.3973 73.5078 24.744 73.2518 25.192C72.9958 25.6293 72.8678 26.152 72.8678 26.76C72.8678 27.368 72.9958 27.896 73.2518 28.344C73.5078 28.792 73.8545 29.1387 74.2918 29.384C74.7291 29.6293 75.2251 29.752 75.7798 29.752C76.2385 29.752 76.6651 29.656 77.0598 29.464C77.4651 29.2613 77.8065 28.952 78.0838 28.536L79.2518 29.272C78.9211 29.8587 78.4518 30.312 77.8438 30.632C77.2465 30.9413 76.5638 31.096 75.7958 31.096ZM84.8114 31.096C83.9474 31.096 83.1741 30.9093 82.4914 30.536C81.8194 30.1627 81.2914 29.6507 80.9074 29C80.5234 28.3493 80.3314 27.6027 80.3314 26.76C80.3314 25.9173 80.5234 25.1707 80.9074 24.52C81.2914 23.8693 81.8194 23.3627 82.4914 23C83.1741 22.6267 83.9474 22.44 84.8114 22.44C85.5794 22.44 86.2621 22.5947 86.8594 22.904C87.4674 23.2027 87.9368 23.6507 88.2674 24.248L87.0994 25C86.8221 24.584 86.4808 24.28 86.0754 24.088C85.6808 23.8853 85.2541 23.784 84.7954 23.784C84.2408 23.784 83.7448 23.9067 83.3074 24.152C82.8701 24.3973 82.5234 24.744 82.2674 25.192C82.0114 25.6293 81.8834 26.152 81.8834 26.76C81.8834 27.368 82.0114 27.896 82.2674 28.344C82.5234 28.792 82.8701 29.1387 83.3074 29.384C83.7448 29.6293 84.2408 29.752 84.7954 29.752C85.2541 29.752 85.6808 29.656 86.0754 29.464C86.4808 29.2613 86.8221 28.952 87.0994 28.536L88.2674 29.272C87.9368 29.8587 87.4674 30.312 86.8594 30.632C86.2621 30.9413 85.5794 31.096 84.8114 31.096ZM93.824 31.096C93.0987 31.096 92.4587 30.9627 91.904 30.696C91.36 30.4293 90.9334 30.024 90.624 29.48C90.3254 28.9253 90.176 28.232 90.176 27.4V22.52H91.712V27.224C91.712 28.056 91.9094 28.68 92.304 29.096C92.7094 29.512 93.2747 29.72 94 29.72C94.5334 29.72 94.9974 29.6133 95.392 29.4C95.7867 29.176 96.0907 28.856 96.304 28.44C96.5174 28.0133 96.624 27.5013 96.624 26.904V22.52H98.16V31H96.704V28.712L96.944 29.32C96.6667 29.8853 96.2507 30.3227 95.696 30.632C95.1414 30.9413 94.5174 31.096 93.824 31.096ZM104.86 31.096C103.954 31.096 103.154 30.9093 102.46 30.536C101.778 30.1627 101.244 29.6507 100.86 29C100.487 28.3493 100.3 27.6027 100.3 26.76C100.3 25.9173 100.482 25.1707 100.844 24.52C101.218 23.8693 101.724 23.3627 102.364 23C103.015 22.6267 103.746 22.44 104.556 22.44C105.378 22.44 106.103 22.6213 106.732 22.984C107.362 23.3467 107.852 23.8587 108.204 24.52C108.567 25.1707 108.748 25.9333 108.748 26.808C108.748 26.872 108.743 26.9467 108.732 27.032C108.732 27.1173 108.727 27.1973 108.716 27.272H101.5V26.168H107.916L107.292 26.552C107.303 26.008 107.191 25.5227 106.956 25.096C106.722 24.6693 106.396 24.3387 105.98 24.104C105.575 23.8587 105.1 23.736 104.556 23.736C104.023 23.736 103.548 23.8587 103.132 24.104C102.716 24.3387 102.391 24.6747 102.156 25.112C101.922 25.5387 101.804 26.0293 101.804 26.584V26.84C101.804 27.4053 101.932 27.912 102.188 28.36C102.455 28.7973 102.823 29.1387 103.292 29.384C103.762 29.6293 104.3 29.752 104.908 29.752C105.41 29.752 105.863 29.6667 106.268 29.496C106.684 29.3253 107.047 29.0693 107.356 28.728L108.204 29.72C107.82 30.168 107.34 30.5093 106.764 30.744C106.199 30.9787 105.564 31.096 104.86 31.096ZM110.881 31V22.52H112.417V31H110.881ZM111.649 20.888C111.35 20.888 111.1 20.792 110.897 20.6C110.705 20.408 110.609 20.1733 110.609 19.896C110.609 19.608 110.705 19.368 110.897 19.176C111.1 18.984 111.35 18.888 111.649 18.888C111.948 18.888 112.193 18.984 112.385 19.176C112.588 19.3573 112.689 19.5867 112.689 19.864C112.689 20.152 112.593 20.3973 112.401 20.6C112.209 20.792 111.958 20.888 111.649 20.888ZM115.35 31V19.128H116.886V31H115.35Z" fill="#E1CAA8"/>
</svg>
