<svg width="168" height="50" viewBox="0 0 168 50" fill="none" xmlns="http://www.w3.org/2000/svg">
<path d="M29.6517 49.1986L10.4935 6.7998L167.689 9.98584L162.777 34.0036L29.6517 49.1986Z" fill="#E1CAA8"/>
<path d="M15.2247 13.4441L0.493896 41.0655L167.689 43.9987L149.766 0L15.2247 13.4441Z" fill="#484848"/>
<path d="M61.9879 31V19.8H66.3559C67.3372 19.8 68.1745 19.9547 68.8679 20.264C69.5612 20.5733 70.0945 21.0213 70.4679 21.608C70.8412 22.1947 71.0279 22.8933 71.0279 23.704C71.0279 24.5147 70.8412 25.2133 70.4679 25.8C70.0945 26.376 69.5612 26.824 68.8679 27.144C68.1745 27.4533 67.3372 27.608 66.3559 27.608H62.8679L63.5879 26.856V31H61.9879ZM63.5879 27.016L62.8679 26.216H66.3079C67.3319 26.216 68.1052 25.9973 68.6279 25.56C69.1612 25.1227 69.4279 24.504 69.4279 23.704C69.4279 22.904 69.1612 22.2853 68.6279 21.848C68.1052 21.4107 67.3319 21.192 66.3079 21.192H62.8679L63.5879 20.392V27.016ZM72.9982 31V22.52H74.4702V24.824L74.3262 24.248C74.5609 23.6613 74.9556 23.2133 75.5102 22.904C76.0649 22.5947 76.7476 22.44 77.5582 22.44V23.928C77.4942 23.9173 77.4302 23.912 77.3662 23.912C77.3129 23.912 77.2596 23.912 77.2062 23.912C76.3849 23.912 75.7342 24.1573 75.2542 24.648C74.7742 25.1387 74.5342 25.848 74.5342 26.776V31H72.9982ZM83.0052 31.096C82.1519 31.096 81.3946 30.9093 80.7332 30.536C80.0719 30.1627 79.5492 29.6507 79.1652 29C78.7812 28.3387 78.5892 27.592 78.5892 26.76C78.5892 25.9173 78.7812 25.1707 79.1652 24.52C79.5492 23.8693 80.0719 23.3627 80.7332 23C81.3946 22.6267 82.1519 22.44 83.0052 22.44C83.8479 22.44 84.5999 22.6267 85.2612 23C85.9332 23.3627 86.4559 23.8693 86.8292 24.52C87.2132 25.16 87.4052 25.9067 87.4052 26.76C87.4052 27.6027 87.2132 28.3493 86.8292 29C86.4559 29.6507 85.9332 30.1627 85.2612 30.536C84.5999 30.9093 83.8479 31.096 83.0052 31.096ZM83.0052 29.752C83.5492 29.752 84.0346 29.6293 84.4612 29.384C84.8986 29.1387 85.2399 28.792 85.4852 28.344C85.7306 27.8853 85.8532 27.3573 85.8532 26.76C85.8532 26.152 85.7306 25.6293 85.4852 25.192C85.2399 24.744 84.8986 24.3973 84.4612 24.152C84.0346 23.9067 83.5492 23.784 83.0052 23.784C82.4612 23.784 81.9759 23.9067 81.5492 24.152C81.1226 24.3973 80.7812 24.744 80.5252 25.192C80.2692 25.6293 80.1412 26.152 80.1412 26.76C80.1412 27.3573 80.2692 27.8853 80.5252 28.344C80.7812 28.792 81.1226 29.1387 81.5492 29.384C81.9759 29.6293 82.4612 29.752 83.0052 29.752ZM88.4415 34.2C88.0895 34.2 87.7535 34.1573 87.4335 34.072C87.1028 33.9867 86.8255 33.8587 86.6015 33.688L87.0975 32.504C87.4175 32.7707 87.8335 32.904 88.3455 32.904C88.7508 32.904 89.0602 32.776 89.2735 32.52C89.4975 32.2747 89.6095 31.9067 89.6095 31.416V22.52H91.1455V31.384C91.1455 32.248 90.9108 32.9307 90.4415 33.432C89.9828 33.944 89.3162 34.2 88.4415 34.2ZM90.3775 20.888C90.0788 20.888 89.8282 20.792 89.6255 20.6C89.4335 20.408 89.3375 20.1733 89.3375 19.896C89.3375 19.608 89.4335 19.368 89.6255 19.176C89.8282 18.984 90.0788 18.888 90.3775 18.888C90.6762 18.888 90.9215 18.984 91.1135 19.176C91.3162 19.3573 91.4175 19.5867 91.4175 19.864C91.4175 20.152 91.3215 20.3973 91.1295 20.6C90.9375 20.792 90.6868 20.888 90.3775 20.888ZM97.8524 31.096C96.9457 31.096 96.1457 30.9093 95.4524 30.536C94.7697 30.1627 94.2364 29.6507 93.8524 29C93.479 28.3493 93.2924 27.6027 93.2924 26.76C93.2924 25.9173 93.4737 25.1707 93.8364 24.52C94.2097 23.8693 94.7164 23.3627 95.3564 23C96.007 22.6267 96.7377 22.44 97.5484 22.44C98.3697 22.44 99.095 22.6213 99.7244 22.984C100.354 23.3467 100.844 23.8587 101.196 24.52C101.559 25.1707 101.74 25.9333 101.74 26.808C101.74 26.872 101.735 26.9467 101.724 27.032C101.724 27.1173 101.719 27.1973 101.708 27.272H94.4924V26.168H100.908L100.284 26.552C100.295 26.008 100.183 25.5227 99.9484 25.096C99.7137 24.6693 99.3884 24.3387 98.9724 24.104C98.567 23.8587 98.0924 23.736 97.5484 23.736C97.015 23.736 96.5404 23.8587 96.1244 24.104C95.7084 24.3387 95.383 24.6747 95.1484 25.112C94.9137 25.5387 94.7964 26.0293 94.7964 26.584V26.84C94.7964 27.4053 94.9244 27.912 95.1804 28.36C95.447 28.7973 95.815 29.1387 96.2844 29.384C96.7537 29.6293 97.2924 29.752 97.9004 29.752C98.4017 29.752 98.855 29.6667 99.2604 29.496C99.6764 29.3253 100.039 29.0693 100.348 28.728L101.196 29.72C100.812 30.168 100.332 30.5093 99.7564 30.744C99.191 30.9787 98.5564 31.096 97.8524 31.096ZM106.785 31.096C105.932 31.096 105.271 30.8667 104.801 30.408C104.332 29.9493 104.097 29.2933 104.097 28.44V20.664H105.633V28.376C105.633 28.8347 105.745 29.1867 105.969 29.432C106.204 29.6773 106.535 29.8 106.961 29.8C107.441 29.8 107.841 29.6667 108.161 29.4L108.641 30.504C108.407 30.7067 108.124 30.856 107.793 30.952C107.473 31.048 107.137 31.096 106.785 31.096ZM102.657 23.784V22.52H108.065V23.784H102.657ZM112.93 31.096C112.226 31.096 111.554 31 110.914 30.808C110.285 30.616 109.789 30.3813 109.426 30.104L110.066 28.888C110.429 29.1333 110.877 29.3413 111.41 29.512C111.944 29.6827 112.488 29.768 113.042 29.768C113.757 29.768 114.269 29.6667 114.578 29.464C114.898 29.2613 115.058 28.9787 115.058 28.616C115.058 28.3493 114.962 28.1413 114.77 27.992C114.578 27.8427 114.322 27.7307 114.002 27.656C113.693 27.5813 113.346 27.5173 112.962 27.464C112.578 27.4 112.194 27.3253 111.81 27.24C111.426 27.144 111.074 27.016 110.754 26.856C110.434 26.6853 110.178 26.456 109.986 26.168C109.794 25.8693 109.698 25.4747 109.698 24.984C109.698 24.472 109.842 24.024 110.13 23.64C110.418 23.256 110.824 22.9627 111.346 22.76C111.88 22.5467 112.509 22.44 113.234 22.44C113.789 22.44 114.349 22.5093 114.914 22.648C115.49 22.776 115.96 22.9627 116.322 23.208L115.666 24.424C115.282 24.168 114.882 23.992 114.466 23.896C114.05 23.8 113.634 23.752 113.218 23.752C112.546 23.752 112.045 23.864 111.714 24.088C111.384 24.3013 111.218 24.5787 111.218 24.92C111.218 25.208 111.314 25.432 111.506 25.592C111.709 25.7413 111.965 25.8587 112.274 25.944C112.594 26.0293 112.946 26.104 113.33 26.168C113.714 26.2213 114.098 26.296 114.482 26.392C114.866 26.4773 115.213 26.6 115.522 26.76C115.842 26.92 116.098 27.144 116.29 27.432C116.493 27.72 116.594 28.104 116.594 28.584C116.594 29.096 116.445 29.5387 116.146 29.912C115.848 30.2853 115.426 30.5787 114.882 30.792C114.338 30.9947 113.688 31.096 112.93 31.096Z" fill="#E1CAA8"/>
</svg>
