<svg width="248" height="263" viewBox="0 0 248 263" fill="none" xmlns="http://www.w3.org/2000/svg">
<path d="M247.499 42.0005H228.499V185H40.9995L22.4995 196.5V252.5C22.4995 258 27.5 262.5 32.4995 262.5H247.499V42.0005Z" fill="#C0AE92" stroke="#C0AE92"/>
<path d="M183.5 241.5H173.5L171 233H159.5L157.5 241.5H148L159 203H172L183.5 241.5Z" fill="#484848" stroke="#484848"/>
<path d="M40.5 184.5L0.5 209V24L40.5 0.5H218C223.5 0.5 228.5 5.50049 228.5 11V184.5H40.5Z" fill="#E1CAA8" stroke="#E1CAA8"/>
<path d="M81.5 144V42.0005H113.5L134 124L156 42.0005H187.5V144H163V80.0005L145.5 144H121.5L103 76.5005V144H81.5Z" fill="#484848" stroke="#484848"/>
<path d="M95.5 241H85.5L96 203H109.5L120.5 241H111L108 232.5H97L95.5 241Z" fill="#484848" stroke="#484848"/>
<path d="M107 225.5H99L103 209.5L107 225.5Z" fill="#C0AE92" stroke="#C0AE92"/>
<path d="M127 203H117.5L129.5 226V241H139V226L151 203H141L134.5 219L127 203Z" fill="#484848" stroke="#484848"/>
<path d="M169.5 226H161.5L165.5 209.5L169.5 226Z" fill="#C0AE92" stroke="#C0AE92"/>
</svg>
