<svg width="315" height="321" viewBox="0 0 315 321" fill="none" xmlns="http://www.w3.org/2000/svg">
<path d="M94.1778 67.7511L0.706543 163.537L94.1778 255.046H132.767L151.633 288.4L276.404 319.616L313.707 191.759L294.412 163.537L313.707 129.328L276.404 0.615723L151.633 35.6801L132.767 67.7511H94.1778Z" fill="#484848" stroke="#484848"/>
<path d="M206.515 162.681L261.826 66.4681L288.409 162.681L261.826 258.894L206.515 162.681Z" fill="#E1CAA8"/>
<path d="M139.198 72.4547L236.1 50.2188L176.93 145.577H68.4517L139.198 72.4547Z" fill="#E1CAA8"/>
<path d="M176.93 178.075H68.4517L135.768 250.342L231.812 273.433L176.93 178.075Z" fill="#E1CAA8"/>
<path d="M206.515 162.681L261.826 66.4681L288.409 162.681L261.826 258.894L206.515 162.681Z" stroke="#E1CAA8"/>
<path d="M139.198 72.4547L236.1 50.2188L176.93 145.577H68.4517L139.198 72.4547Z" stroke="#E1CAA8"/>
<path d="M176.93 178.075H68.4517L135.768 250.342L231.812 273.433L176.93 178.075Z" stroke="#E1CAA8"/>
</svg>
