<svg width="298" height="296" viewBox="0 0 298 296" fill="none" xmlns="http://www.w3.org/2000/svg">
<path d="M23.2318 223.336L2.73185 203.836C0.231853 200.336 -0.268319 195.836 2.73184 190.336L206.732 4.33639C215.232 0.836569 221.232 4.33625 222.732 11.3364V80.3364L35.2318 223.336C31.7319 225.336 26.2319 225.836 23.2318 223.336Z" fill="#403F3F" stroke="#403F3F"/>
<path d="M225.227 2.33667C225.227 2.33667 214.732 -2.66361 207.227 3.83667C210.732 3.83667 218.232 -0.663486 223.227 10.8367V284.337C220.732 291.836 212.232 294.337 209.227 292.837C212.732 296.336 222.227 294.337 222.227 294.337L288.227 262.837C293.732 259.336 295.732 254.836 296.727 248.837V45.3367C295.732 39.3364 292.732 35.8364 288.227 32.8367L225.227 2.33667Z" fill="#6C6C6C" stroke="#6C6C6C"/>
<path d="M37.2318 74.3366C32.2318 70.3367 28.2319 70.3365 22.732 73.337L2.23204 92.337C-0.767894 97.3366 0.731982 100.836 2.23204 105.836L207.232 291.837C211.732 294.336 219.232 293.836 223.232 283.836V215.836L37.2318 74.3366Z" fill="#484848" stroke="#484848"/>
</svg>
